<?xml version="1.0" encoding="utf-8"?>
<!-- Generator: Adobe Illustrator 22.0.1, SVG Export Plug-In . SVG Version: 6.00 Build 0)  -->
<svg version="1.1" id="Layer_1" xmlns="http://www.w3.org/2000/svg" xmlns:xlink="http://www.w3.org/1999/xlink" x="0px" y="0px"
	 viewBox="0 0 95.8 13.6" style="enable-background:new 0 0 95.8 13.6;" xml:space="preserve">
<style type="text/css">
	.st0{fill:#B1A565;}
</style>
<g>
	<polygon class="st0" points="0,13.6 0,0.5 2.3,0.5 8.5,9 8.5,9 8.5,0.5 11.2,0.5 11.2,13.6 8.9,13.6 2.7,5 2.6,5 2.6,13.6 0,13.6 	
		"/>
	<path class="st0" d="M34.4,7.9c0,1.8-0.5,3.2-1.5,4.2c-1,1-2.5,1.5-4.3,1.5c-2,0-3.5-0.6-4.7-1.8c-1.1-1.2-1.7-2.9-1.7-5
		c0-2.1,0.6-3.8,1.7-5C25,0.6,26.6,0,28.5,0c1.5,0,2.8,0.4,3.9,1.2c1.1,0.8,1.7,1.9,1.9,3.2h-2.8c-0.2-0.7-0.6-1.2-1.1-1.6
		c-0.5-0.4-1.2-0.6-1.9-0.6c-1.1,0-1.9,0.4-2.6,1.2C25.3,4.3,25,5.3,25,6.7c0,1.4,0.3,2.6,1,3.4c0.6,0.8,1.5,1.2,2.6,1.2
		c0.9,0,1.6-0.3,2.2-0.8c0.6-0.5,0.9-1.2,0.9-2l0-0.2h-2.9v-2h5.6V7.9L34.4,7.9z M41.5,6.6H44c0.7,0,1.2-0.2,1.6-0.6
		c0.4-0.4,0.6-0.9,0.6-1.5c0-0.6-0.2-1.2-0.6-1.5c-0.4-0.4-0.9-0.6-1.6-0.6h-2.4V6.6L41.5,6.6z M41.5,13.4h-2.8V0.2h5.4
		c1.5,0,2.7,0.4,3.5,1.1C48.6,2.1,49,3.1,49,4.4c0,0.9-0.2,1.6-0.6,2.3c-0.4,0.7-1,1.2-1.8,1.5l2.8,5.2h-3.1l-2.5-4.8h-2.3V13.4
		L41.5,13.4z M59.3,0c2,0,3.5,0.6,4.6,1.8c1.1,1.2,1.7,2.9,1.7,5c0,2.1-0.6,3.8-1.7,5c-1.1,1.2-2.7,1.8-4.6,1.8
		c-2,0-3.5-0.6-4.6-1.8c-1.1-1.2-1.7-2.9-1.7-5c0-2.1,0.6-3.8,1.7-5C55.8,0.6,57.3,0,59.3,0L59.3,0z M59.3,2.3
		c-1.1,0-1.9,0.4-2.6,1.2c-0.6,0.8-1,1.9-1,3.3c0,1.4,0.3,2.5,1,3.3c0.6,0.8,1.5,1.2,2.6,1.2c1.1,0,1.9-0.4,2.6-1.2
		c0.6-0.8,1-1.9,1-3.3c0-1.4-0.3-2.5-1-3.3C61.2,2.7,60.4,2.3,59.3,2.3L59.3,2.3z M72.7,8.5c0,0.9,0.2,1.5,0.7,2
		c0.5,0.5,1.2,0.8,2,0.8c0.9,0,1.6-0.3,2-0.8c0.5-0.5,0.7-1.2,0.7-2V0.2H81v8.5c0,1.5-0.5,2.6-1.5,3.5c-1,0.9-2.3,1.4-4,1.4
		c-1.7,0-3-0.4-4-1.4c-1-0.9-1.5-2.1-1.5-3.5V0.2h2.8V8.5L72.7,8.5z M91.2,0.2c1.4,0,2.5,0.4,3.3,1.2c0.8,0.8,1.3,1.9,1.3,3.3
		c0,1.3-0.4,2.4-1.3,3.3c-0.9,0.8-2,1.2-3.4,1.2h-2.6v4.2h-2.8V0.2H91.2L91.2,0.2z M88.5,7.1h2c0.8,0,1.4-0.2,1.8-0.6
		c0.4-0.4,0.7-1,0.7-1.7C93,4,92.8,3.4,92.3,3c-0.4-0.4-1-0.6-1.8-0.6h-2V7.1L88.5,7.1z"/>
</g>
</svg>
